<?xml version="1.0" encoding="utf-8"?>
<!-- Generator: Adobe Illustrator 19.0.0, SVG Export Plug-In . SVG Version: 6.00 Build 0)  -->
<svg version="1.1" id="Calque_1" xmlns="http://www.w3.org/2000/svg" xmlns:xlink="http://www.w3.org/1999/xlink" x="0px" y="0px"
	 viewBox="0 0 125 500" enable-background="new 0 0 125 500" xml:space="preserve">
<path id="XMLID_46_" fill="#FFFFFF" d="M104.7,238.1c-2.3-1-5-0.4-6.8,1.4L86,251.3v-7.3c0-5.2-4.2-9.3-9.4-9.3H25.4
	c-5.2,0-9.3,4.2-9.3,9.3v34.4c0,5.2,4.2,9.3,9.3,9.3h51.2c5.2,0,9.4-4.2,9.4-9.3v-7.2l11.9,11.9c1.2,1.2,2.8,1.8,4.4,1.8
	c0.8,0,1.6-0.2,2.4-0.5c2.3-1,3.9-3.2,3.9-5.8v-34.9C108.5,241.3,107,239,104.7,238.1z M60,263.7l-12.7,9.8
	c-0.5,0.4-1.2,0.6-1.9,0.6c-0.5,0-0.9-0.1-1.4-0.3c-1-0.5-1.7-1.6-1.7-2.7v-19.6c0-1.2,0.7-2.2,1.7-2.7c1-0.5,2.3-0.4,3.2,0.3
	l12.7,9.8c0.8,0.6,1.2,1.5,1.2,2.4S60.7,263.1,60,263.7z"/>
<g id="XMLID_7_">
	<path id="XMLID_8_" fill="#FFFFFF" d="M72.8,317.4l18.8,18.8L44,383.9l-18.8-18.8L72.8,317.4z M106,312.8l-8.4-8.4
		c-3.2-3.2-8.5-3.2-11.8,0l-8,8l18.8,18.8l9.4-9.4C108.5,319.4,108.5,315.4,106,312.8z M15.3,391.6c-0.3,1.5,1.1,2.9,2.6,2.6l21-5.1
		l-18.8-18.8L15.3,391.6z"/>
</g>
<g id="XMLID_13_">
	<path id="XMLID_11_" fill="#FFFFFF" d="M60.5,447.2c11.1,0,20-10.9,20-24.3c0-13.4-2.9-24.3-20-24.3s-20,10.9-20,24.3
		C40.5,436.3,49.5,447.2,60.5,447.2z"/>
	<path id="XMLID_10_" fill="#FFFFFF" d="M22.7,484.3C22.7,483.5,22.7,484.1,22.7,484.3L22.7,484.3z"/>
	<path id="XMLID_9_" fill="#FFFFFF" d="M98.3,485C98.3,484.7,98.3,483.4,98.3,485L98.3,485z"/>
	<path id="XMLID_6_" fill="#FFFFFF" d="M98.3,483.3c-0.4-23.4-3.4-30.1-26.8-34.3c0,0-3.3,4.2-11,4.2s-11-4.2-11-4.2
		c-23.1,4.2-26.4,10.7-26.8,33.5c0,1.9-0.1,2-0.1,1.7c0,0.4,0,1.2,0,2.5c0,0,5.6,11.2,37.8,11.2c32.2,0,37.8-11.2,37.8-11.2
		c0-0.8,0-1.4,0-1.8C98.3,485.1,98.3,484.8,98.3,483.3z"/>
</g>
<g id="XMLID_17_">
	<path id="XMLID_15_" fill="#FFFFFF" d="M24.8,91.9c0,0-0.1,2.2,2.1,2.2c2.7,0,25.1,0,25.1,0l0-20.6c0,0-0.4-3.4,2.9-3.4h10.4
		c3.9,0,3.7,3.4,3.7,3.4l0,20.5c0,0,21.2,0,24.6,0c2.8,0,2.6-2.8,2.6-2.8V53.4L61.6,22.6L24.8,53.4C24.8,53.4,24.8,91.9,24.8,91.9z"
		/>
	<path id="XMLID_14_" fill="#FFFFFF" d="M11.2,50.5c0,0,3.1,5.8,9.9,0l40.7-34.4L100,50.3c7.9,5.7,10.8,0,10.8,0l-49-44.4L11.2,50.5
		z"/>
	<polygon id="XMLID_12_" fill="#FFFFFF" points="99.1,16 89.3,16 89.3,27.9 99.1,36.2 	"/>
</g>
<path id="XMLID_41_" fill="#FFFFFF" d="M82.2,186.2c-3.5,2.8-7.5,4.9-11.9,6.1c1.7-1.8,3.3-4.2,4.7-7c0.5-0.9,0.9-1.9,1.3-2.9
	C78.4,183.5,80.3,184.7,82.2,186.2z"/>
<path id="XMLID_40_" fill="#FFFFFF" d="M73.2,181.1c-0.4,1-0.8,1.9-1.3,2.8c-2.8,5.5-6.2,8.9-9.8,9.6v-14.8
	C66,178.9,69.7,179.7,73.2,181.1z"/>
<path id="XMLID_39_" fill="#FFFFFF" d="M58.8,178.7v14.8c-3.6-0.8-7.1-4.1-9.8-9.6c-0.4-0.9-0.9-1.8-1.3-2.8
	C51.3,179.7,55,178.9,58.8,178.7z"/>
<path id="XMLID_38_" fill="#FFFFFF" d="M50.8,192.3c-4.4-1.3-8.4-3.4-11.9-6.1c1.8-1.4,3.8-2.7,5.9-3.7c0.4,1,0.8,2,1.3,2.9
	C47.4,188.2,49,190.5,50.8,192.3z"/>
<path id="XMLID_37_" fill="#FFFFFF" d="M50.8,125c-1.7,1.8-3.3,4.2-4.7,7c-0.5,0.9-0.9,1.9-1.3,2.9c-2.1-1-4-2.3-5.9-3.7
	C42.3,128.4,46.4,126.3,50.8,125z"/>
<path id="XMLID_36_" fill="#FFFFFF" d="M58.8,123.8v14.8c-3.8-0.2-7.6-1-11.1-2.4c0.4-1,0.8-1.9,1.3-2.8
	C51.8,127.9,55.2,124.6,58.8,123.8z"/>
<path id="XMLID_35_" fill="#FFFFFF" d="M82.2,131.1c-1.8,1.4-3.8,2.7-5.9,3.7c-0.4-1-0.8-2-1.3-2.9c-1.4-2.8-3-5.1-4.7-7
	C74.6,126.3,78.7,128.4,82.2,131.1z"/>
<path id="XMLID_34_" fill="#FFFFFF" d="M73.2,136.2c-3.5,1.4-7.3,2.2-11.1,2.4v-14.8c3.6,0.8,7.1,4.1,9.8,9.6
	C72.4,134.3,72.9,135.3,73.2,136.2z"/>
<path id="XMLID_33_" fill="#FFFFFF" d="M82.2,131.1c-1.8,1.4-3.8,2.7-5.9,3.7c-0.4-1-0.8-2-1.3-2.9c-1.4-2.8-3-5.1-4.7-7
	C74.6,126.3,78.7,128.4,82.2,131.1z"/>
<path id="XMLID_32_" fill="#FFFFFF" d="M95.5,157h-15c-0.1-6.8-1.2-13.3-3.1-19c2.6-1.3,5-2.8,7.3-4.7C91,139.4,95.1,147.7,95.5,157
	z"/>
<path id="XMLID_31_" fill="#FFFFFF" d="M95.5,160.3c-0.4,9.3-4.5,17.6-10.8,23.6c-2.3-1.8-4.7-3.4-7.3-4.7c1.9-5.6,2.9-12.1,3.1-19
	H95.5z"/>
<path id="XMLID_30_" fill="#FFFFFF" d="M82.2,186.2c-3.5,2.8-7.5,4.9-11.9,6.1c1.7-1.8,3.3-4.2,4.7-7c0.5-0.9,0.9-1.9,1.3-2.9
	C78.4,183.5,80.3,184.7,82.2,186.2z"/>
<path id="XMLID_29_" fill="#FFFFFF" d="M58.8,178.7v14.8c-3.6-0.8-7.1-4.1-9.8-9.6c-0.4-0.9-0.9-1.8-1.3-2.8
	C51.3,179.7,55,178.9,58.8,178.7z"/>
<path id="XMLID_28_" fill="#FFFFFF" d="M73.2,181.1c-0.4,1-0.8,1.9-1.3,2.8c-2.8,5.5-6.2,8.9-9.8,9.6v-14.8
	C66,178.9,69.7,179.7,73.2,181.1z"/>
<path id="XMLID_27_" fill="#FFFFFF" d="M77.2,160.3c-0.1,6.3-1.1,12.4-2.8,17.6c-3.9-1.5-8-2.4-12.2-2.6v-15.1H77.2z"/>
<path id="XMLID_26_" fill="#FFFFFF" d="M77.2,157h-15v-15.1c4.2-0.2,8.3-1.1,12.2-2.6C76.1,144.6,77,150.6,77.2,157z"/>
<path id="XMLID_25_" fill="#FFFFFF" d="M50.8,125c-1.7,1.8-3.3,4.2-4.7,7c-0.5,0.9-0.9,1.9-1.3,2.9c-2.1-1-4-2.3-5.9-3.7
	C42.3,128.4,46.4,126.3,50.8,125z"/>
<path id="XMLID_24_" fill="#FFFFFF" d="M58.8,123.8v14.8c-3.8-0.2-7.6-1-11.1-2.4c0.4-1,0.8-1.9,1.3-2.8
	C51.8,127.9,55.2,124.6,58.8,123.8z"/>
<path id="XMLID_23_" fill="#FFFFFF" d="M58.8,141.9V157h-15c0.1-6.3,1.1-12.4,2.8-17.6C50.5,140.9,54.6,141.7,58.8,141.9z"/>
<path id="XMLID_22_" fill="#FFFFFF" d="M58.8,160.3v15.1c-4.2,0.2-8.3,1.1-12.2,2.6c-1.7-5.2-2.6-11.3-2.8-17.6H58.8z"/>
<path id="XMLID_21_" fill="#FFFFFF" d="M43.6,138c-1.9,5.6-2.9,12.1-3.1,19h-15c0.4-9.3,4.5-17.6,10.8-23.6
	C38.5,135.2,41,136.7,43.6,138z"/>
<path id="XMLID_20_" fill="#FFFFFF" d="M43.6,179.3c-2.6,1.3-5,2.8-7.3,4.7c-6.3-6-10.3-14.4-10.8-23.6h15
	C40.6,167.1,41.7,173.6,43.6,179.3z"/>
<path id="XMLID_19_" fill="#FFFFFF" d="M96.8,193.1C96.8,193.1,96.8,193.1,96.8,193.1c0-0.1,0-0.2,0-0.2c0,0,0,0,0,0
	c0,0,0-0.1,0-0.1c0,0,0,0,0,0c0,0,0-0.1-0.1-0.1c0,0,0,0,0,0c0-0.1-0.1-0.1-0.1-0.2c0,0,0,0,0,0c0-0.1-0.1-0.1-0.1-0.2c0,0,0,0,0,0
	c0,0,0,0,0,0c0,0,0-0.1-0.1-0.1c0,0,0,0,0,0c0,0,0,0,0,0c0,0-0.1-0.1-0.1-0.1c0,0,0,0,0,0c0,0-0.1-0.1-0.1-0.1c0,0,0,0,0,0
	c-0.1-0.1-0.2-0.1-0.4-0.1c0,0,0,0,0,0c0,0-0.1,0-0.1,0c0,0,0,0-0.1,0c-0.1,0-0.1,0-0.2,0c0,0,0,0,0,0c-0.1,0-0.1,0-0.2,0
	c0,0,0,0,0,0l-8.2,0.9c-0.9,0.1-1.6,0.9-1.5,1.8c0.1,0.9,0.9,1.6,1.8,1.5l3-0.3c-18.5,14.9-45.8,13.8-63.1-3.4
	c-8.9-8.9-13.8-20.8-13.8-33.4c0-0.9-0.7-1.7-1.7-1.7s-1.7,0.7-1.7,1.7c0,13.5,5.3,26.2,14.8,35.8c9.6,9.6,22.3,14.8,35.8,14.8
	c11.5,0,22.5-3.8,31.4-10.9l-0.7,2.3c-0.3,0.9,0.2,1.8,1.1,2.1c0.2,0,0.3,0.1,0.5,0.1c0.7,0,1.4-0.5,1.6-1.2l2.3-7.9c0,0,0,0,0,0
	l0,0v0c0-0.1,0-0.1,0-0.2c0,0,0,0,0-0.1c0,0,0-0.1,0-0.1c0,0,0,0,0-0.1C96.8,193.2,96.8,193.2,96.8,193.1z"/>
<path id="XMLID_18_" fill="#FFFFFF" d="M96.3,122.9C86.7,113.3,74,108,60.5,108c-11.5,0-22.5,3.8-31.4,10.9l0.7-2.3
	c0.3-0.9-0.2-1.8-1.1-2.1c-0.9-0.3-1.8,0.2-2.1,1.1l-2.3,7.9c0,0,0,0,0,0l0,0v0c0,0.1,0,0.1,0,0.2c0,0,0,0,0,0.1c0,0,0,0.1,0,0.1
	c0,0,0,0,0,0.1c0,0,0,0.1,0,0.1c0,0,0,0,0,0c0,0.1,0,0.1,0,0.2c0,0,0,0,0,0c0,0,0,0.1,0,0.1c0,0,0,0,0,0c0,0,0,0.1,0.1,0.1
	c0,0,0,0,0,0c0,0.1,0.1,0.1,0.1,0.2c0,0,0,0,0,0c0,0.1,0.1,0.1,0.1,0.2c0,0,0,0,0,0c0,0,0,0,0,0c0,0,0,0,0.1,0.1c0,0,0,0,0,0
	c0,0,0,0,0.1,0c0,0,0.1,0,0.1,0.1c0,0,0,0,0.1,0c0,0,0.1,0,0.1,0.1c0,0,0,0,0.1,0c0,0,0.1,0,0.1,0.1c0,0,0,0,0.1,0c0,0,0.1,0,0.1,0
	c0,0,0,0,0.1,0c0,0,0.1,0,0.1,0c0,0,0,0,0.1,0c0,0,0.1,0,0.1,0c0,0,0,0,0.1,0c0.1,0,0.1,0,0.2,0c0,0,0,0,0,0c0,0,0,0,0,0
	c0.1,0,0.1,0,0.2,0c0,0,0,0,0,0l8.2-0.9c0.9-0.1,1.6-0.9,1.5-1.8c-0.1-0.9-0.9-1.6-1.8-1.5l-3,0.3c18.5-14.9,45.8-13.8,63.1,3.4
	c8.9,8.9,13.8,20.8,13.8,33.4c0,0.9,0.7,1.7,1.7,1.7s1.7-0.7,1.7-1.7C111.1,145.1,105.9,132.4,96.3,122.9z"/>
</svg>
