<?xml version="1.0" encoding="utf-8"?>
<!-- Generator: Adobe Illustrator 19.0.0, SVG Export Plug-In . SVG Version: 6.00 Build 0)  -->
<svg version="1.1" id="Calque_1" xmlns="http://www.w3.org/2000/svg" xmlns:xlink="http://www.w3.org/1999/xlink" x="0px" y="0px"
	 viewBox="-235 48.3 125 605.3" style="enable-background:new -235 48.3 125 605.3;" xml:space="preserve">
<style type="text/css">
	.st0{fill:#FFFFFF;}
</style>
<g id="XMLID_7_">
	<path id="XMLID_8_" class="st0" d="M-164.7,363.8l18.8,18.8l-47.6,47.7l-18.8-18.8L-164.7,363.8z M-131.5,359.2l-8.4-8.4
		c-3.2-3.2-8.5-3.2-11.8,0l-8,8l18.8,18.8l9.4-9.4C-129,365.8-129,361.8-131.5,359.2z M-222.2,438c-0.3,1.5,1.1,2.9,2.6,2.6l21-5.1
		l-18.8-18.8L-222.2,438z"/>
</g>
<g id="XMLID_13_">
	<path id="XMLID_11_" class="st0" d="M-177,598.6c11.1,0,20-10.9,20-24.3s-2.9-24.3-20-24.3s-20,10.9-20,24.3S-188,598.6-177,598.6z
		"/>
	<path id="XMLID_10_" class="st0" d="M-214.8,635.7C-214.8,634.9-214.8,635.5-214.8,635.7L-214.8,635.7z"/>
	<path id="XMLID_9_" class="st0" d="M-139.2,636.4C-139.2,636.1-139.2,634.8-139.2,636.4L-139.2,636.4z"/>
	<path id="XMLID_6_" class="st0" d="M-139.2,634.7c-0.4-23.4-3.4-30.1-26.8-34.3c0,0-3.3,4.2-11,4.2s-11-4.2-11-4.2
		c-23.1,4.2-26.4,10.7-26.8,33.5c0,1.9-0.1,2-0.1,1.7c0,0.4,0,1.2,0,2.5c0,0,5.6,11.2,37.8,11.2s37.8-11.2,37.8-11.2
		c0-0.8,0-1.4,0-1.8C-139.2,636.5-139.2,636.2-139.2,634.7z"/>
</g>
<g id="XMLID_17_">
	<path id="XMLID_15_" class="st0" d="M-212.7,138.3c0,0-0.1,2.2,2.1,2.2c2.7,0,25.1,0,25.1,0v-20.6c0,0-0.4-3.4,2.9-3.4h10.4
		c3.9,0,3.7,3.4,3.7,3.4v20.5c0,0,21.2,0,24.6,0c2.8,0,2.6-2.8,2.6-2.8V99.8L-175.9,69l-36.8,30.8V138.3z"/>
	<path id="XMLID_14_" class="st0" d="M-226.3,96.9c0,0,3.1,5.8,9.9,0l40.7-34.4l38.2,34.2c7.9,5.7,10.8,0,10.8,0l-49-44.4
		L-226.3,96.9z"/>
	<polygon id="XMLID_12_" class="st0" points="-138.4,62.4 -148.2,62.4 -148.2,74.3 -138.4,82.6 	"/>
</g>
<path id="XMLID_41_" class="st0" d="M-155.3,232.6c-3.5,2.8-7.5,4.9-11.9,6.1c1.7-1.8,3.3-4.2,4.7-7c0.5-0.9,0.9-1.9,1.3-2.9
	C-159.1,229.9-157.2,231.1-155.3,232.6z"/>
<path id="XMLID_40_" class="st0" d="M-164.3,227.5c-0.4,1-0.8,1.9-1.3,2.8c-2.8,5.5-6.2,8.9-9.8,9.6v-14.8
	C-171.5,225.3-167.8,226.1-164.3,227.5z"/>
<path id="XMLID_39_" class="st0" d="M-178.7,225.1v14.8c-3.6-0.8-7.1-4.1-9.8-9.6c-0.4-0.9-0.9-1.8-1.3-2.8
	C-186.2,226.1-182.5,225.3-178.7,225.1z"/>
<path id="XMLID_38_" class="st0" d="M-186.7,238.7c-4.4-1.3-8.4-3.4-11.9-6.1c1.8-1.4,3.8-2.7,5.9-3.7c0.4,1,0.8,2,1.3,2.9
	C-190.1,234.6-188.5,236.9-186.7,238.7z"/>
<path id="XMLID_37_" class="st0" d="M-186.7,171.4c-1.7,1.8-3.3,4.2-4.7,7c-0.5,0.9-0.9,1.9-1.3,2.9c-2.1-1-4-2.3-5.9-3.7
	C-195.2,174.8-191.1,172.7-186.7,171.4z"/>
<path id="XMLID_36_" class="st0" d="M-178.7,170.2V185c-3.8-0.2-7.6-1-11.1-2.4c0.4-1,0.8-1.9,1.3-2.8
	C-185.7,174.3-182.3,171-178.7,170.2z"/>
<path id="XMLID_35_" class="st0" d="M-155.3,177.5c-1.8,1.4-3.8,2.7-5.9,3.7c-0.4-1-0.8-2-1.3-2.9c-1.4-2.8-3-5.1-4.7-7
	C-162.9,172.7-158.8,174.8-155.3,177.5z"/>
<path id="XMLID_34_" class="st0" d="M-164.3,182.6c-3.5,1.4-7.3,2.2-11.1,2.4v-14.8c3.6,0.8,7.1,4.1,9.8,9.6
	C-165.1,180.7-164.6,181.7-164.3,182.6z"/>
<path id="XMLID_33_" class="st0" d="M-155.3,177.5c-1.8,1.4-3.8,2.7-5.9,3.7c-0.4-1-0.8-2-1.3-2.9c-1.4-2.8-3-5.1-4.7-7
	C-162.9,172.7-158.8,174.8-155.3,177.5z"/>
<path id="XMLID_32_" class="st0" d="M-142,203.4h-15c-0.1-6.8-1.2-13.3-3.1-19c2.6-1.3,5-2.8,7.3-4.7
	C-146.5,185.8-142.4,194.1-142,203.4z"/>
<path id="XMLID_31_" class="st0" d="M-142,206.7c-0.4,9.3-4.5,17.6-10.8,23.6c-2.3-1.8-4.7-3.4-7.3-4.7c1.9-5.6,2.9-12.1,3.1-19
	L-142,206.7L-142,206.7z"/>
<path id="XMLID_30_" class="st0" d="M-155.3,232.6c-3.5,2.8-7.5,4.9-11.9,6.1c1.7-1.8,3.3-4.2,4.7-7c0.5-0.9,0.9-1.9,1.3-2.9
	C-159.1,229.9-157.2,231.1-155.3,232.6z"/>
<path id="XMLID_29_" class="st0" d="M-178.7,225.1v14.8c-3.6-0.8-7.1-4.1-9.8-9.6c-0.4-0.9-0.9-1.8-1.3-2.8
	C-186.2,226.1-182.5,225.3-178.7,225.1z"/>
<path id="XMLID_28_" class="st0" d="M-164.3,227.5c-0.4,1-0.8,1.9-1.3,2.8c-2.8,5.5-6.2,8.9-9.8,9.6v-14.8
	C-171.5,225.3-167.8,226.1-164.3,227.5z"/>
<path id="XMLID_27_" class="st0" d="M-160.3,206.7c-0.1,6.3-1.1,12.4-2.8,17.6c-3.9-1.5-8-2.4-12.2-2.6v-15.1L-160.3,206.7
	L-160.3,206.7z"/>
<path id="XMLID_26_" class="st0" d="M-160.3,203.4h-15v-15.1c4.2-0.2,8.3-1.1,12.2-2.6C-161.4,191-160.5,197-160.3,203.4z"/>
<path id="XMLID_25_" class="st0" d="M-186.7,171.4c-1.7,1.8-3.3,4.2-4.7,7c-0.5,0.9-0.9,1.9-1.3,2.9c-2.1-1-4-2.3-5.9-3.7
	C-195.2,174.8-191.1,172.7-186.7,171.4z"/>
<path id="XMLID_24_" class="st0" d="M-178.7,170.2V185c-3.8-0.2-7.6-1-11.1-2.4c0.4-1,0.8-1.9,1.3-2.8
	C-185.7,174.3-182.3,171-178.7,170.2z"/>
<path id="XMLID_23_" class="st0" d="M-178.7,188.3v15.1h-15c0.1-6.3,1.1-12.4,2.8-17.6C-187,187.3-182.9,188.1-178.7,188.3z"/>
<path id="XMLID_22_" class="st0" d="M-178.7,206.7v15.1c-4.2,0.2-8.3,1.1-12.2,2.6c-1.7-5.2-2.6-11.3-2.8-17.6h15V206.7z"/>
<path id="XMLID_21_" class="st0" d="M-193.9,184.4c-1.9,5.6-2.9,12.1-3.1,19h-15c0.4-9.3,4.5-17.6,10.8-23.6
	C-199,181.6-196.5,183.1-193.9,184.4z"/>
<path id="XMLID_20_" class="st0" d="M-193.9,225.7c-2.6,1.3-5,2.8-7.3,4.7c-6.3-6-10.3-14.4-10.8-23.6h15
	C-196.9,213.5-195.8,220-193.9,225.7z"/>
<path id="XMLID_19_" class="st0" d="M-140.7,239.5L-140.7,239.5c0-0.1,0-0.2,0-0.2l0,0v-0.1l0,0c0,0,0-0.1-0.1-0.1l0,0
	c0-0.1-0.1-0.1-0.1-0.2l0,0c0-0.1-0.1-0.1-0.1-0.2l0,0l0,0c0,0,0-0.1-0.1-0.1l0,0l0,0l-0.1-0.1l0,0l-0.1-0.1l0,0
	c-0.1-0.1-0.2-0.1-0.4-0.1l0,0h-0.1c0,0,0,0-0.1,0s-0.1,0-0.2,0l0,0c-0.1,0-0.1,0-0.2,0l0,0l-8.2,0.9c-0.9,0.1-1.6,0.9-1.5,1.8
	s0.9,1.6,1.8,1.5l3-0.3c-18.5,14.9-45.8,13.8-63.1-3.4c-8.9-8.9-13.8-20.8-13.8-33.4c0-0.9-0.7-1.7-1.7-1.7s-1.7,0.7-1.7,1.7
	c0,13.5,5.3,26.2,14.8,35.8c9.6,9.6,22.3,14.8,35.8,14.8c11.5,0,22.5-3.8,31.4-10.9l-0.7,2.3c-0.3,0.9,0.2,1.8,1.1,2.1
	c0.2,0,0.3,0.1,0.5,0.1c0.7,0,1.4-0.5,1.6-1.2l2.3-7.9l0,0l0,0l0,0c0-0.1,0-0.1,0-0.2c0,0,0,0,0-0.1v-0.1c0,0,0,0,0-0.1
	C-140.7,239.6-140.7,239.6-140.7,239.5z"/>
<path id="XMLID_18_" class="st0" d="M-141.2,169.3c-9.6-9.6-22.3-14.9-35.8-14.9c-11.5,0-22.5,3.8-31.4,10.9l0.7-2.3
	c0.3-0.9-0.2-1.8-1.1-2.1c-0.9-0.3-1.8,0.2-2.1,1.1l-2.3,7.9l0,0l0,0l0,0c0,0.1,0,0.1,0,0.2c0,0,0,0,0,0.1v0.1c0,0,0,0,0,0.1v0.1
	l0,0c0,0.1,0,0.1,0,0.2l0,0v0.1l0,0c0,0,0,0.1,0.1,0.1l0,0c0,0.1,0.1,0.1,0.1,0.2l0,0c0,0.1,0.1,0.1,0.1,0.2l0,0l0,0
	c0,0,0,0,0.1,0.1l0,0c0,0,0,0,0.1,0c0,0,0.1,0,0.1,0.1c0,0,0,0,0.1,0c0,0,0.1,0,0.1,0.1c0,0,0,0,0.1,0c0,0,0.1,0,0.1,0.1
	c0,0,0,0,0.1,0h0.1c0,0,0,0,0.1,0h0.1c0,0,0,0,0.1,0h0.1c0,0,0,0,0.1,0s0.1,0,0.2,0l0,0l0,0c0.1,0,0.1,0,0.2,0l0,0l8.2-0.9
	c0.9-0.1,1.6-0.9,1.5-1.8s-0.9-1.6-1.8-1.5l-3,0.3c18.5-14.9,45.8-13.8,63.1,3.4c8.9,8.9,13.8,20.8,13.8,33.4c0,0.9,0.7,1.7,1.7,1.7
	s1.7-0.7,1.7-1.7C-126.4,191.5-131.6,178.8-141.2,169.3z"/>
<g id="icomoon-ignore">
</g>
<path class="st0" d="M-122,340c-0.4-0.8-1.8-1-4.2-0.7c-4.4,0.6-7.5-0.9-9.5-4.3c-1.5-2.6-1.9-5.2-1.2-7.8s2.9-6.3,6.4-11.2l2.2-3.1
	c6.6-9.1,7.9-17,4.1-23.7c-3.9-6.8-15.4-6.3-23.6-2.8c-6.6-13.7-20.6-23.1-36.8-23.1c-22.6,0-40.9,18.3-40.9,40.9
	s18.3,40.9,40.9,40.9c22.6,0,40.9-18.3,40.9-40.9c0-5-0.9-9.8-2.6-14.2c2.8-1,6.1-1.7,9.2-1.8c4.1-0.1,7.8,0.7,9.3,3.3
	c3.3,5.7,1.7,12.4-4.8,20.2l-1.3,1.6c-7.5,9.1-9.4,17-5.4,23.8c1.6,2.8,4.1,4.7,7.6,5.9s6.4,1.1,8.8-0.3
	C-121.6,342.1-121.3,341.2-122,340L-122,340z M-203.3,313.1c-4.7,0-8.5-3.8-8.5-8.5s3.8-8.5,8.5-8.5s8.5,3.8,8.5,8.5
	S-198.6,313.1-203.3,313.1z M-184.5,331.9c-4.7,0-8.5-3.8-8.5-8.5s3.8-8.5,8.5-8.5s8.5,3.8,8.5,8.5S-179.8,331.9-184.5,331.9z
	 M-187.9,304.6c0-1.9,1.5-3.4,3.4-3.4s3.4,1.5,3.4,3.4s-1.5,3.4-3.4,3.4S-187.9,306.5-187.9,304.6z M-184.5,294.4
	c-4.7,0-8.5-3.8-8.5-8.5s3.8-8.5,8.5-8.5s8.5,3.8,8.5,8.5S-179.8,294.4-184.5,294.4z M-165.8,313.1c-4.7,0-8.5-3.8-8.5-8.5
	s3.8-8.5,8.5-8.5s8.5,3.8,8.5,8.5S-161,313.1-165.8,313.1z"/>
<path class="st0" d="M-125,461.2h-22.1c0,0-0.2-0.4-0.2-5.6c0-5.1-4.2-9.3-9.3-9.3h-29.8c-5.1,0-9.3,4.2-9.3,9.3
	c0,5.1,0.2,5.6,0.2,5.6h-22.6c-4.1,0-7.5,3.3-7.5,7.5v59.7c0,4.1,3.3,7.5,7.5,7.5h93.2c4.1,0,7.5-3.3,7.5-7.5v-59.7
	C-117.5,464.5-120.8,461.2-125,461.2z M-171.4,520.8c-12.4,0-22.4-10-22.4-22.4s10-22.4,22.4-22.4c12.4,0,22.4,10,22.4,22.4
	S-159.1,520.8-171.4,520.8z"/>
</svg>
